<?xml version="1.0" encoding="UTF-8"?>
<svg width="42px" height="66px" viewBox="0 0 42 66" version="1.1" xmlns="http://www.w3.org/2000/svg" xmlns:xlink="http://www.w3.org/1999/xlink">
    <!-- Generator: Sketch 42 (36781) - http://www.bohemiancoding.com/sketch -->
    <title>Untitled</title>
    <desc>Created with Sketch.</desc>
    <defs></defs>
    <g id="Page-1" stroke="none" stroke-width="1" fill="none" fill-rule="evenodd">
        <g id="noun_738678_cc" fill-rule="nonzero" fill="#000000">
            <path d="M30.983,0.5 C25.285,0.5 20.666,5.119 20.666,10.817 C20.666,15.389 23.641,19.264 27.76,20.618 L27.76,46.154 C27.76,53.277 24.565,59.051 17.442,59.051 C10.623,59.051 7.624,53.758 7.16,47.057 L11.016,47.057 L0.699,23.843 L0.699,47.057 C1.171,57.322 7.061,65.5 17.442,65.5 C28.126,65.5 34.208,56.839 34.208,46.154 L34.208,20.618 C38.326,19.264 41.301,15.389 41.301,10.817 C41.301,5.119 36.682,0.5 30.983,0.5 Z M30.983,15.976 C28.134,15.976 25.825,13.666 25.825,10.817 C25.825,7.968 28.135,5.658 30.983,5.658 C33.833,5.658 36.142,7.968 36.142,10.817 C36.142,13.666 33.833,15.976 30.983,15.976 Z" id="Shape"></path>
        </g>
    </g>
</svg>